# xmcd CD database file
#
# Track frame offsets:
#	150
#	13737
#	25115
#	39080
#	52407
#	67142
#	77972
#	89510
#	100712
#	115737
#	131117
#	149052
#	161052
#	170460
#	186015
#
# Disc length: 2629 seconds
#
# Revision: 1
# Processed by: cddbd v1.5.1PL2 Copyright (c) Steve Scherf et al.
# Submitted via: CDex 1.51
#
DISCID=d50a430f
DTITLE=Maria de Lourdes - A Jose Alfredo Jimenez
DYEAR=1988
DGENRE=Latin
TTITLE0=15 de Septiembre
TTITLE1=A la Luz de los Cocuyos
TTITLE2=Paloma Querida
TTITLE3=Sin nos Dejan
TTITLE4=Guitarras de Media Noche
TTITLE5=No me Amenaces
TTITLE6=La que se Fue
TTITLE7=Amaneci en tus Brazos
TTITLE8=Me equivoque con Tigo
TTITLE9=Una Cruz en el Cielo
TTITLE10=Que te Vaya Bonito
TTITLE11=Extrañame
TTITLE12=Declarate Inocente
TTITLE13=Vamonos
TTITLE14=Se va Diciembre
EXTD=Mexican Music YEAR: 1988
EXTT0=
EXTT1=
EXTT2=
EXTT3=
EXTT4=
EXTT5=
EXTT6=
EXTT7=
EXTT8=
EXTT9=
EXTT10=
EXTT11=
EXTT12=
EXTT13=
EXTT14=
PLAYORDER=
